<?xml version="1.0" encoding="UTF-8" standalone="no"?><!DOCTYPE svg PUBLIC "-//W3C//DTD SVG 1.1//EN" "http://www.w3.org/Graphics/SVG/1.1/DTD/svg11.dtd"><svg width="100%" height="100%" viewBox="0 0 504 504" version="1.1" xmlns="http://www.w3.org/2000/svg" xmlns:xlink="http://www.w3.org/1999/xlink" xml:space="preserve" style="fill-rule:evenodd;clip-rule:evenodd;stroke-linejoin:round;stroke-miterlimit:1.41421;"><path d="M452.2,251.6c-9.2,58.5 -27.1,75.6 -58.8,114.9c-31.7,33.3 -77.3,88.9 -141.9,85.8c-58.5,-9.2 -75.6,-27.1 -114.9,-58.8c-33.3,-31.7 -88.9,-77.3 -85.8,-141.9c9.2,-58.5 27.1,-75.6 58.8,-114.9c31.7,-33.3 77.3,-88.9 141.9,-85.8c58.5,9.2 75.6,27.1 114.9,58.8c33.3,31.7 88.9,77.3 85.8,141.9Z" style="fill:#c48b5f;fill-rule:nonzero;"/><g id="Layer_1_1_"><path d="M154.389,345.595l73.759,-94.942l-66.916,-88.735l42.355,0.319l30.36,43.306c5.711,8.232 10.303,15.129 13.775,20.691c5.579,-7.57 10.713,-14.278 15.4,-20.125l34.024,-43.167l40.472,0.305l-69.737,85.976l73.624,97.782l-41.602,-0.314l-40.608,-57.397l-10.802,-15.478l-53.067,72.088l-41.037,-0.309Z" style="fill:#fff;fill-rule:nonzero;"/></g></svg>