<?xml version="1.0" encoding="UTF-8" standalone="no"?><!DOCTYPE svg PUBLIC "-//W3C//DTD SVG 1.1//EN" "http://www.w3.org/Graphics/SVG/1.1/DTD/svg11.dtd"><svg width="100%" height="100%" viewBox="0 0 512 512" version="1.1" xmlns="http://www.w3.org/2000/svg" xmlns:xlink="http://www.w3.org/1999/xlink" xml:space="preserve" style="fill-rule:evenodd;clip-rule:evenodd;stroke-linejoin:round;stroke-miterlimit:1.41421;"><path d="M494,256c0,131.4 -106.6,238 -238,238c-131.4,0 -238,-106.6 -238,-238c0,-131.4 106.6,-238 238,-238c131.4,0 238,106.6 238,238Z" style="fill:#c99065;fill-rule:nonzero;"/><g><g><path d="M157.5,331.8c4,60.4 75,66.3 89.4,26c19.9,-43.7 77.9,-58 107.5,-8.5" style="fill:#c99065;fill-rule:nonzero;"/><path d="M304.858,310.586l0.278,0.002l0.279,0.004l0.279,0.005l0.279,0.006l0.279,0.007l0.279,0.009l0.278,0.01l0.279,0.012l0.28,0.012l0.279,0.014l0.279,0.015l0.279,0.017l0.279,0.018l0.279,0.019l0.279,0.02l0.279,0.022l0.279,0.023l0.279,0.024l0.279,0.026l0.28,0.027l0.278,0.028l0.279,0.03l0.279,0.03l0.279,0.033l0.279,0.033l0.279,0.035l0.279,0.036l0.278,0.038l0.279,0.038l0.279,0.041l0.278,0.041l0.279,0.043l0.278,0.044l0.278,0.045l0.279,0.047l0.278,0.048l0.278,0.05l0.278,0.051l0.278,0.052l0.277,0.053l0.278,0.055l0.278,0.057l0.277,0.057l0.277,0.059l0.277,0.06l0.277,0.062l0.278,0.063l0.276,0.064l0.277,0.066l0.276,0.067l0.277,0.069l0.276,0.07l0.275,0.071l0.277,0.072l0.275,0.074l0.276,0.076l0.275,0.076l0.275,0.078l0.275,0.08l0.275,0.081l0.274,0.082l0.275,0.083l0.274,0.085l0.274,0.087l0.273,0.087l0.274,0.089l0.273,0.091l0.273,0.092l0.273,0.093l0.273,0.095l0.272,0.096l0.272,0.097l0.272,0.099l0.271,0.1l0.272,0.102l0.271,0.103l0.271,0.104l0.27,0.106l0.27,0.107l0.27,0.109l0.27,0.11l0.269,0.111l0.27,0.113l0.268,0.115l0.268,0.115l0.268,0.117l0.269,0.118l0.268,0.121l0.266,0.121l0.267,0.122l0.267,0.124l0.266,0.126l0.266,0.127l0.265,0.128l0.266,0.13l0.265,0.131l0.264,0.133l0.264,0.133l0.264,0.136l0.263,0.136l0.263,0.139l0.263,0.14l0.262,0.141l0.262,0.142l0.261,0.144l0.261,0.145l0.261,0.147l0.26,0.148l0.26,0.15l0.259,0.151l0.259,0.152l0.259,0.154l0.258,0.155l0.258,0.157l0.257,0.158l0.257,0.16l0.257,0.16l0.255,0.163l0.256,0.163l0.255,0.166l0.255,0.166l0.254,0.168l0.254,0.17l0.253,0.171l0.252,0.172l0.253,0.174l0.251,0.175l0.252,0.177l0.251,0.178l0.249,0.179l0.251,0.181l0.249,0.183l0.248,0.183l0.249,0.186l0.248,0.186l0.247,0.188l0.246,0.19l0.247,0.191l0.245,0.192l0.245,0.194l0.245,0.195l0.244,0.197l0.244,0.198l0.243,0.199l0.242,0.201l0.242,0.203l0.241,0.203l0.241,0.205l0.24,0.207l0.239,0.208l0.239,0.209l0.239,0.211l0.238,0.213l0.237,0.214l0.236,0.215l0.237,0.216l0.236,0.219l0.234,0.219l0.234,0.221l0.234,0.222l0.233,0.224l0.233,0.225l0.231,0.227l0.231,0.228l0.231,0.23l0.23,0.231l0.229,0.232l0.229,0.234l0.228,0.235l0.228,0.237l0.227,0.238l0.226,0.239l0.225,0.241l0.225,0.243l0.224,0.243l0.224,0.246l0.223,0.247l0.222,0.248l0.221,0.249l0.221,0.251l0.221,0.253l0.219,0.253l0.219,0.255l0.218,0.257l0.218,0.258l0.217,0.26l0.216,0.261l0.215,0.262l0.215,0.264l0.214,0.266l0.214,0.267l0.212,0.268l0.212,0.269l0.211,0.271l0.211,0.273l0.209,0.273l0.209,0.276l0.209,0.277l0.208,0.278l0.207,0.28l0.206,0.281l0.205,0.282l0.205,0.284l0.204,0.286l0.203,0.286l0.203,0.289l0.201,0.289l0.201,0.291l0.201,0.293l0.199,0.294l0.199,0.296l0.198,0.296l0.197,0.299l0.197,0.3l0.196,0.301l0.194,0.303l0.194,0.303l0.194,0.306l0.192,0.307l0.192,0.308l0.191,0.311l0.191,0.311l0.189,0.312l0.182,0.303l-12.86,7.722l-0.166,-0.276l-0.159,-0.263l-0.16,-0.262l-0.16,-0.259l-0.161,-0.259l-0.161,-0.257l-0.162,-0.256l-0.162,-0.254l-0.163,-0.253l-0.163,-0.251l-0.164,-0.249l-0.164,-0.249l-0.165,-0.247l-0.165,-0.245l-0.166,-0.245l-0.166,-0.242l-0.166,-0.241l-0.167,-0.24l-0.167,-0.238l-0.168,-0.237l-0.169,-0.236l-0.168,-0.234l-0.17,-0.232l-0.169,-0.232l-0.17,-0.229l-0.171,-0.229l-0.17,-0.227l-0.172,-0.225l-0.172,-0.224l-0.172,-0.223l-0.172,-0.221l-0.173,-0.22l-0.174,-0.219l-0.173,-0.217l-0.174,-0.216l-0.175,-0.215l-0.175,-0.213l-0.175,-0.212l-0.176,-0.21l-0.176,-0.209l-0.176,-0.207l-0.177,-0.207l-0.178,-0.205l-0.177,-0.203l-0.178,-0.202l-0.178,-0.201l-0.179,-0.2l-0.179,-0.198l-0.179,-0.196l-0.18,-0.196l-0.18,-0.194l-0.18,-0.193l-0.181,-0.191l-0.182,-0.191l-0.181,-0.188l-0.182,-0.188l-0.182,-0.186l-0.182,-0.185l-0.183,-0.184l-0.183,-0.181l-0.184,-0.182l-0.183,-0.179l-0.184,-0.178l-0.185,-0.178l-0.184,-0.175l-0.185,-0.175l-0.186,-0.173l-0.185,-0.172l-0.186,-0.17l-0.187,-0.17l-0.186,-0.168l-0.187,-0.166l-0.187,-0.166l-0.187,-0.164l-0.188,-0.163l-0.188,-0.162l-0.188,-0.161l-0.189,-0.159l-0.188,-0.157l-0.189,-0.157l-0.19,-0.156l-0.189,-0.154l-0.19,-0.153l-0.19,-0.151l-0.191,-0.151l-0.19,-0.149l-0.191,-0.148l-0.191,-0.147l-0.192,-0.146l-0.191,-0.144l-0.192,-0.143l-0.193,-0.143l-0.192,-0.14l-0.192,-0.139l-0.194,-0.139l-0.193,-0.137l-0.193,-0.136l-0.194,-0.135l-0.193,-0.133l-0.194,-0.133l-0.195,-0.131l-0.194,-0.13l-0.195,-0.129l-0.195,-0.127l-0.195,-0.127l-0.196,-0.125l-0.195,-0.124l-0.196,-0.123l-0.196,-0.122l-0.197,-0.12l-0.196,-0.12l-0.197,-0.118l-0.197,-0.117l-0.197,-0.116l-0.197,-0.115l-0.198,-0.114l-0.197,-0.112l-0.198,-0.112l-0.199,-0.11l-0.198,-0.109l-0.198,-0.108l-0.199,-0.107l-0.199,-0.106l-0.199,-0.104l-0.199,-0.104l-0.2,-0.103l-0.199,-0.101l-0.2,-0.1l-0.201,-0.099l-0.2,-0.098l-0.2,-0.097l-0.2,-0.095l-0.201,-0.095l-0.201,-0.093l-0.201,-0.093l-0.202,-0.092l-0.201,-0.09l-0.201,-0.089l-0.202,-0.088l-0.202,-0.087l-0.202,-0.086l-0.202,-0.084l-0.203,-0.084l-0.202,-0.083l-0.203,-0.081l-0.203,-0.081l-0.203,-0.079l-0.203,-0.078l-0.203,-0.078l-0.204,-0.076l-0.204,-0.075l-0.203,-0.074l-0.204,-0.073l-0.204,-0.072l-0.204,-0.071l-0.205,-0.07l-0.204,-0.069l-0.205,-0.068l-0.204,-0.066l-0.205,-0.066l-0.206,-0.065l-0.205,-0.063l-0.205,-0.063l-0.206,-0.061l-0.205,-0.061l-0.206,-0.059l-0.205,-0.058l-0.206,-0.058l-0.207,-0.056l-0.206,-0.055l-0.206,-0.055l-0.206,-0.053l-0.207,-0.052l-0.206,-0.051l-0.207,-0.05l-0.207,-0.05l-0.207,-0.048l-0.207,-0.047l-0.207,-0.046l-0.207,-0.045l-0.208,-0.044l-0.207,-0.043l-0.208,-0.042l-0.207,-0.041l-0.208,-0.04l-0.208,-0.039l-0.208,-0.038l-0.208,-0.038l-0.208,-0.036l-0.209,-0.035l-0.208,-0.034l-0.209,-0.033l-0.208,-0.032l-0.209,-0.031l-0.208,-0.03l-0.209,-0.029l-0.209,-0.028l-0.209,-0.027l-0.209,-0.026l-0.209,-0.025l-0.209,-0.024l-0.209,-0.024l-0.209,-0.022l-0.21,-0.021l-0.209,-0.02l-0.209,-0.019l-0.21,-0.019l-0.209,-0.017l-0.21,-0.016l-0.21,-0.016l-0.209,-0.014l-0.21,-0.013l-0.21,-0.013l-0.21,-0.011l-0.21,-0.011l-0.21,-0.009l-0.21,-0.009l-0.21,-0.007l-0.21,-0.007l-0.21,-0.005l-0.21,-0.005l-0.21,-0.004l-0.21,-0.003l-0.211,-0.001l-0.21,-0.001l-0.21,0l-0.211,0.001l-0.21,0.002l-0.21,0.003l-0.211,0.004l-0.21,0.005l-0.21,0.006l-0.211,0.007l-0.21,0.007l-0.21,0.009l-0.211,0.01l-0.21,0.01l-0.21,0.012l-0.211,0.012l-0.21,0.014l-0.211,0.014l-0.21,0.016l-0.21,0.016l-0.21,0.017l-0.211,0.018l-0.21,0.019l-0.21,0.02l-0.211,0.021l-0.21,0.022l-0.21,0.023l-0.21,0.024l-0.21,0.025l-0.21,0.025l-0.21,0.027l-0.21,0.027l-0.21,0.029l-0.21,0.029l-0.209,0.031l-0.21,0.031l-0.21,0.032l-0.21,0.033l-0.209,0.034l-0.21,0.035l-0.209,0.036l-0.21,0.037l-0.209,0.037l-0.209,0.039l-0.209,0.04l-0.21,0.04l-0.209,0.041l-0.209,0.043l-0.209,0.043l-0.208,0.044l-0.209,0.045l-0.209,0.046l-0.208,0.047l-0.208,0.048l-0.209,0.049l-0.208,0.049l-0.207,0.051l-0.209,0.051l-0.208,0.052l-0.207,0.054l-0.208,0.054l-0.207,0.055l-0.208,0.056l-0.207,0.057l-0.207,0.057l-0.207,0.059l-0.207,0.06l-0.206,0.06l-0.207,0.062l-0.207,0.062l-0.206,0.063l-0.206,0.064l-0.206,0.065l-0.206,0.066l-0.205,0.067l-0.206,0.067l-0.205,0.069l-0.206,0.069l-0.204,0.07l-0.205,0.072l-0.205,0.072l-0.204,0.073l-0.205,0.073l-0.204,0.075l-0.204,0.076l-0.204,0.076l-0.203,0.078l-0.204,0.078l-0.203,0.079l-0.203,0.08l-0.202,0.081l-0.203,0.082l-0.203,0.082l-0.201,0.084l-0.202,0.084l-0.202,0.085l-0.202,0.086l-0.201,0.087l-0.201,0.088l-0.201,0.089l-0.201,0.09l-0.2,0.09l-0.2,0.091l-0.2,0.092l-0.199,0.093l-0.2,0.094l-0.199,0.095l-0.199,0.096l-0.198,0.096l-0.199,0.097l-0.198,0.099l-0.198,0.099l-0.197,0.099l-0.198,0.101l-0.197,0.102l-0.197,0.102l-0.196,0.104l-0.196,0.104l-0.196,0.104l-0.196,0.106l-0.195,0.107l-0.195,0.107l-0.195,0.109l-0.195,0.109l-0.194,0.11l-0.193,0.111l-0.194,0.111l-0.193,0.113l-0.193,0.114l-0.193,0.114l-0.192,0.114l-0.192,0.117l-0.192,0.116l-0.19,0.117l-0.192,0.119l-0.19,0.119l-0.191,0.12l-0.19,0.121l-0.189,0.121l-0.19,0.123l-0.188,0.123l-0.189,0.124l-0.188,0.125l-0.188,0.126l-0.187,0.126l-0.187,0.127l-0.187,0.128l-0.187,0.13l-0.186,0.129l-0.185,0.131l-0.186,0.131l-0.184,0.132l-0.185,0.133l-0.184,0.134l-0.184,0.135l-0.183,0.135l-0.183,0.136l-0.183,0.137l-0.181,0.138l-0.182,0.138l-0.181,0.14l-0.181,0.14l-0.181,0.141l-0.18,0.141l-0.179,0.143l-0.179,0.143l-0.179,0.144l-0.179,0.145l-0.177,0.146l-0.178,0.146l-0.177,0.147l-0.176,0.148l-0.177,0.149l-0.175,0.149l-0.176,0.151l-0.174,0.151l-0.174,0.151l-0.174,0.153l-0.174,0.154l-0.173,0.154l-0.172,0.155l-0.172,0.155l-0.172,0.157l-0.171,0.157l-0.17,0.158l-0.17,0.158l-0.17,0.16l-0.169,0.16l-0.169,0.161l-0.168,0.162l-0.167,0.162l-0.167,0.164l-0.167,0.164l-0.166,0.164l-0.166,0.166l-0.165,0.166l-0.164,0.167l-0.164,0.168l-0.164,0.168l-0.163,0.169l-0.163,0.17l-0.162,0.171l-0.161,0.171l-0.161,0.173l-0.16,0.173l-0.16,0.173l-0.159,0.174l-0.159,0.175l-0.158,0.176l-0.158,0.177l-0.157,0.177l-0.156,0.178l-0.156,0.179l-0.156,0.179l-0.154,0.18l-0.155,0.181l-0.154,0.182l-0.152,0.182l-0.153,0.183l-0.152,0.183l-0.151,0.185l-0.151,0.185l-0.15,0.186l-0.15,0.186l-0.149,0.188l-0.148,0.187l-0.148,0.189l-0.147,0.19l-0.147,0.19l-0.146,0.19l-0.145,0.192l-0.145,0.192l-0.144,0.193l-0.143,0.193l-0.143,0.195l-0.143,0.194l-0.141,0.196l-0.141,0.196l-0.141,0.197l-0.139,0.198l-0.14,0.198l-0.138,0.199l-0.138,0.2l-0.137,0.2l-0.136,0.202l-0.136,0.201l-0.135,0.203l-0.135,0.203l-0.134,0.203l-0.133,0.205l-0.133,0.205l-0.131,0.206l-0.132,0.207l-0.13,0.207l-0.13,0.207l-0.129,0.209l-0.129,0.209l-0.127,0.21l-0.128,0.21l-0.126,0.211l-0.126,0.212l-0.125,0.213l-0.124,0.213l-0.123,0.213l-0.123,0.215l-0.123,0.215l-0.121,0.215l-0.121,0.217l-0.12,0.217l-0.119,0.218l-0.119,0.218l-0.118,0.219l-0.117,0.219l-0.116,0.22l-0.116,0.221l-0.115,0.222l-0.114,0.222l-0.114,0.223l-0.113,0.223l-0.112,0.224l-0.111,0.225l-0.11,0.226l-0.11,0.225l-0.109,0.227l-0.108,0.227l-0.108,0.228l-0.106,0.229l-0.09,0.193l-0.088,0.239l-0.104,0.278l-0.106,0.277l-0.107,0.276l-0.109,0.274l-0.111,0.273l-0.112,0.272l-0.113,0.271l-0.115,0.27l-0.117,0.269l-0.118,0.267l-0.12,0.267l-0.121,0.265l-0.123,0.264l-0.124,0.263l-0.126,0.262l-0.127,0.26l-0.128,0.259l-0.131,0.259l-0.131,0.257l-0.133,0.255l-0.135,0.255l-0.136,0.253l-0.137,0.253l-0.139,0.251l-0.14,0.249l-0.142,0.249l-0.143,0.247l-0.144,0.246l-0.146,0.245l-0.147,0.244l-0.149,0.242l-0.15,0.241l-0.151,0.24l-0.153,0.239l-0.154,0.238l-0.155,0.236l-0.157,0.235l-0.158,0.233l-0.159,0.233l-0.161,0.231l-0.162,0.23l-0.163,0.228l-0.164,0.228l-0.166,0.225l-0.167,0.225l-0.169,0.224l-0.169,0.222l-0.171,0.221l-0.172,0.22l-0.173,0.218l-0.174,0.217l-0.176,0.215l-0.177,0.215l-0.178,0.213l-0.179,0.212l-0.18,0.21l-0.182,0.209l-0.183,0.208l-0.184,0.207l-0.185,0.205l-0.185,0.204l-0.188,0.202l-0.188,0.202l-0.19,0.2l-0.19,0.198l-0.191,0.197l-0.194,0.197l-0.193,0.194l-0.195,0.193l-0.196,0.192l-0.197,0.191l-0.198,0.189l-0.199,0.188l-0.2,0.186l-0.201,0.186l-0.202,0.183l-0.203,0.183l-0.204,0.181l-0.205,0.18l-0.206,0.178l-0.207,0.178l-0.207,0.175l-0.209,0.175l-0.21,0.172l-0.21,0.172l-0.212,0.171l-0.213,0.169l-0.213,0.167l-0.214,0.167l-0.216,0.165l-0.216,0.163l-0.216,0.162l-0.218,0.161l-0.219,0.16l-0.219,0.158l-0.221,0.157l-0.221,0.156l-0.221,0.153l-0.223,0.153l-0.224,0.152l-0.225,0.15l-0.225,0.149l-0.225,0.147l-0.227,0.146l-0.228,0.144l-0.228,0.143l-0.229,0.143l-0.23,0.14l-0.23,0.139l-0.232,0.138l-0.232,0.136l-0.232,0.135l-0.233,0.134l-0.235,0.133l-0.235,0.131l-0.235,0.13l-0.236,0.128l-0.237,0.127l-0.237,0.126l-0.238,0.124l-0.239,0.123l-0.24,0.121l-0.24,0.121l-0.24,0.119l-0.241,0.117l-0.243,0.116l-0.242,0.115l-0.243,0.114l-0.244,0.112l-0.244,0.111l-0.245,0.109l-0.246,0.108l-0.246,0.107l-0.246,0.105l-0.247,0.105l-0.248,0.102l-0.248,0.102l-0.249,0.1l-0.249,0.098l-0.25,0.098l-0.25,0.096l-0.251,0.095l-0.252,0.093l-0.251,0.092l-0.252,0.091l-0.253,0.089l-0.254,0.088l-0.253,0.087l-0.254,0.085l-0.255,0.084l-0.255,0.083l-0.256,0.081l-0.255,0.08l-0.257,0.079l-0.257,0.077l-0.257,0.076l-0.258,0.075l-0.257,0.073l-0.259,0.072l-0.259,0.071l-0.259,0.069l-0.26,0.068l-0.26,0.067l-0.26,0.065l-0.261,0.065l-0.261,0.062l-0.261,0.062l-0.262,0.06l-0.262,0.059l-0.263,0.057l-0.262,0.056l-0.264,0.055l-0.263,0.054l-0.264,0.052l-0.264,0.051l-0.264,0.049l-0.264,0.048l-0.266,0.047l-0.265,0.046l-0.265,0.044l-0.266,0.043l-0.266,0.042l-0.266,0.04l-0.267,0.039l-0.266,0.038l-0.268,0.036l-0.267,0.035l-0.267,0.034l-0.268,0.032l-0.268,0.031l-0.267,0.03l-0.27,0.029l-0.268,0.027l-0.269,0.026l-0.269,0.024l-0.268,0.023l-0.27,0.022l-0.269,0.021l-0.27,0.019l-0.27,0.018l-0.269,0.017l-0.271,0.015l-0.27,0.014l-0.271,0.013l-0.27,0.011l-0.27,0.01l-0.271,0.009l-0.271,0.007l-0.271,0.007l-0.272,0.004l-0.271,0.004l-0.271,0.002l-0.271,0.001l-0.272,0l-0.272,-0.002l-0.271,-0.003l-0.271,-0.004l-0.273,-0.006l-0.272,-0.007l-0.271,-0.008l-0.272,-0.01l-0.273,-0.011l-0.271,-0.012l-0.272,-0.014l-0.272,-0.015l-0.273,-0.016l-0.272,-0.017l-0.272,-0.019l-0.272,-0.02l-0.272,-0.022l-0.272,-0.022l-0.272,-0.024l-0.273,-0.026l-0.272,-0.027l-0.272,-0.028l-0.271,-0.029l-0.273,-0.031l-0.272,-0.032l-0.271,-0.033l-0.272,-0.034l-0.272,-0.036l-0.272,-0.038l-0.271,-0.038l-0.272,-0.04l-0.272,-0.041l-0.271,-0.043l-0.271,-0.044l-0.271,-0.045l-0.272,-0.046l-0.271,-0.048l-0.27,-0.049l-0.271,-0.051l-0.27,-0.051l-0.271,-0.054l-0.27,-0.054l-0.27,-0.056l-0.27,-0.057l-0.27,-0.058l-0.27,-0.06l-0.27,-0.061l-0.269,-0.063l-0.269,-0.063l-0.269,-0.065l-0.268,-0.067l-0.27,-0.067l-0.268,-0.069l-0.268,-0.071l-0.268,-0.071l-0.267,-0.074l-0.268,-0.074l-0.267,-0.076l-0.267,-0.077l-0.267,-0.078l-0.266,-0.08l-0.267,-0.081l-0.266,-0.082l-0.266,-0.084l-0.265,-0.085l-0.265,-0.086l-0.266,-0.088l-0.264,-0.09l-0.265,-0.09l-0.263,-0.092l-0.264,-0.093l-0.263,-0.094l-0.264,-0.096l-0.263,-0.097l-0.262,-0.099l-0.262,-0.1l-0.261,-0.101l-0.262,-0.102l-0.261,-0.104l-0.261,-0.106l-0.26,-0.106l-0.26,-0.108l-0.26,-0.109l-0.258,-0.111l-0.259,-0.112l-0.259,-0.113l-0.257,-0.115l-0.258,-0.116l-0.257,-0.117l-0.257,-0.119l-0.256,-0.121l-0.256,-0.121l-0.255,-0.123l-0.255,-0.124l-0.255,-0.126l-0.254,-0.127l-0.253,-0.128l-0.253,-0.129l-0.253,-0.132l-0.252,-0.132l-0.251,-0.134l-0.251,-0.135l-0.25,-0.136l-0.251,-0.138l-0.249,-0.139l-0.249,-0.141l-0.249,-0.142l-0.247,-0.143l-0.247,-0.144l-0.247,-0.146l-0.247,-0.148l-0.245,-0.149l-0.245,-0.15l-0.245,-0.151l-0.244,-0.153l-0.243,-0.155l-0.242,-0.155l-0.243,-0.157l-0.241,-0.158l-0.241,-0.16l-0.24,-0.161l-0.24,-0.163l-0.239,-0.163l-0.238,-0.165l-0.237,-0.167l-0.237,-0.168l-0.236,-0.169l-0.236,-0.171l-0.235,-0.172l-0.234,-0.173l-0.234,-0.175l-0.232,-0.176l-0.232,-0.178l-0.232,-0.179l-0.23,-0.18l-0.23,-0.182l-0.229,-0.183l-0.229,-0.184l-0.227,-0.186l-0.227,-0.187l-0.226,-0.189l-0.226,-0.19l-0.224,-0.191l-0.224,-0.192l-0.223,-0.194l-0.222,-0.196l-0.221,-0.197l-0.221,-0.198l-0.219,-0.199l-0.219,-0.201l-0.218,-0.202l-0.217,-0.204l-0.217,-0.205l-0.215,-0.206l-0.214,-0.208l-0.214,-0.209l-0.213,-0.21l-0.212,-0.212l-0.211,-0.213l-0.21,-0.215l-0.209,-0.215l-0.209,-0.218l-0.207,-0.219l-0.206,-0.219l-0.206,-0.222l-0.204,-0.223l-0.204,-0.224l-0.202,-0.225l-0.202,-0.227l-0.201,-0.228l-0.199,-0.229l-0.199,-0.231l-0.198,-0.232l-0.196,-0.234l-0.196,-0.235l-0.195,-0.236l-0.193,-0.238l-0.193,-0.238l-0.191,-0.24l-0.191,-0.242l-0.189,-0.243l-0.189,-0.245l-0.187,-0.245l-0.186,-0.247l-0.185,-0.249l-0.184,-0.249l-0.183,-0.251l-0.182,-0.253l-0.181,-0.253l-0.18,-0.255l-0.178,-0.257l-0.178,-0.257l-0.176,-0.259l-0.175,-0.261l-0.174,-0.261l-0.173,-0.263l-0.171,-0.264l-0.171,-0.266l-0.169,-0.267l-0.168,-0.268l-0.167,-0.27l-0.166,-0.271l-0.165,-0.272l-0.163,-0.273l-0.162,-0.275l-0.161,-0.276l-0.159,-0.277l-0.159,-0.279l-0.157,-0.28l-0.156,-0.282l-0.155,-0.282l-0.153,-0.284l-0.152,-0.285l-0.151,-0.287l-0.15,-0.288l-0.148,-0.289l-0.147,-0.29l-0.146,-0.291l-0.144,-0.294l-0.144,-0.294l-0.141,-0.295l-0.141,-0.297l-0.139,-0.298l-0.138,-0.299l-0.136,-0.301l-0.135,-0.302l-0.134,-0.303l-0.133,-0.304l-0.131,-0.306l-0.13,-0.306l-0.128,-0.309l-0.127,-0.309l-0.125,-0.311l-0.125,-0.312l-0.123,-0.313l-0.121,-0.314l-0.12,-0.316l-0.118,-0.317l-0.118,-0.318l-0.115,-0.319l-0.115,-0.321l-0.113,-0.322l-0.111,-0.323l-0.11,-0.324l-0.108,-0.326l-0.108,-0.327l-0.105,-0.328l-0.104,-0.329l-0.103,-0.33l-0.101,-0.332l-0.1,-0.333l-0.098,-0.334l-0.097,-0.335l-0.095,-0.337l-0.094,-0.338l-0.092,-0.339l-0.091,-0.34l-0.089,-0.341l-0.088,-0.343l-0.086,-0.344l-0.085,-0.345l-0.083,-0.346l-0.082,-0.347l-0.08,-0.349l-0.078,-0.35l-0.077,-0.351l-0.075,-0.352l-0.074,-0.353l-0.072,-0.355l-0.071,-0.356l-0.069,-0.357l-0.068,-0.358l-0.066,-0.359l-0.064,-0.36l-0.063,-0.362l-0.061,-0.363l-0.059,-0.364l-0.058,-0.365l-0.057,-0.367l-0.054,-0.367l-0.054,-0.369l-0.051,-0.37l-0.05,-0.371l-0.048,-0.372l-0.047,-0.374l-0.044,-0.374l-0.044,-0.376l-0.041,-0.377l-0.04,-0.378l-0.039,-0.379l-0.036,-0.381l-0.035,-0.381l-0.033,-0.383l-0.032,-0.384l-0.03,-0.385l-0.028,-0.386l-0.025,-0.37l14.964,-1.026l0.023,0.337l0.024,0.317l0.024,0.317l0.026,0.315l0.028,0.314l0.028,0.313l0.03,0.311l0.031,0.31l0.033,0.308l0.034,0.308l0.035,0.305l0.037,0.305l0.037,0.303l0.04,0.302l0.04,0.301l0.042,0.299l0.042,0.298l0.045,0.297l0.045,0.295l0.047,0.294l0.048,0.293l0.049,0.292l0.05,0.29l0.052,0.289l0.052,0.287l0.054,0.287l0.055,0.285l0.057,0.283l0.057,0.283l0.059,0.281l0.06,0.28l0.061,0.278l0.062,0.278l0.064,0.276l0.064,0.275l0.066,0.273l0.067,0.272l0.068,0.271l0.069,0.27l0.07,0.268l0.071,0.268l0.072,0.266l0.074,0.264l0.075,0.264l0.075,0.262l0.077,0.261l0.078,0.259l0.079,0.259l0.08,0.257l0.081,0.256l0.082,0.255l0.083,0.253l0.084,0.253l0.085,0.251l0.086,0.25l0.087,0.248l0.088,0.248l0.09,0.246l0.09,0.245l0.091,0.244l0.092,0.242l0.094,0.242l0.094,0.24l0.095,0.239l0.096,0.238l0.097,0.236l0.098,0.235l0.099,0.235l0.1,0.233l0.101,0.232l0.102,0.23l0.103,0.23l0.103,0.228l0.105,0.227l0.105,0.226l0.107,0.225l0.107,0.224l0.109,0.222l0.109,0.222l0.11,0.22l0.111,0.219l0.111,0.218l0.113,0.217l0.114,0.215l0.114,0.214l0.115,0.214l0.117,0.212l0.117,0.211l0.117,0.21l0.119,0.209l0.12,0.208l0.12,0.206l0.121,0.205l0.122,0.205l0.123,0.203l0.123,0.202l0.125,0.201l0.125,0.2l0.126,0.199l0.127,0.197l0.128,0.197l0.128,0.195l0.13,0.195l0.129,0.193l0.131,0.192l0.132,0.191l0.132,0.19l0.133,0.189l0.134,0.188l0.135,0.187l0.135,0.185l0.136,0.185l0.137,0.183l0.138,0.183l0.138,0.181l0.139,0.18l0.14,0.18l0.14,0.178l0.141,0.177l0.142,0.176l0.143,0.175l0.143,0.174l0.144,0.173l0.145,0.172l0.145,0.17l0.146,0.17l0.147,0.169l0.147,0.167l0.149,0.167l0.149,0.166l0.149,0.164l0.15,0.163l0.151,0.163l0.151,0.162l0.152,0.16l0.153,0.159l0.154,0.159l0.153,0.157l0.155,0.156l0.155,0.155l0.156,0.154l0.157,0.153l0.157,0.153l0.158,0.151l0.158,0.15l0.159,0.149l0.16,0.148l0.16,0.147l0.161,0.146l0.162,0.145l0.162,0.144l0.162,0.143l0.163,0.142l0.164,0.141l0.164,0.14l0.165,0.139l0.165,0.138l0.166,0.137l0.167,0.136l0.167,0.135l0.168,0.134l0.168,0.133l0.169,0.131l0.169,0.131l0.17,0.13l0.17,0.129l0.171,0.128l0.172,0.127l0.171,0.126l0.173,0.125l0.173,0.124l0.173,0.123l0.174,0.122l0.175,0.121l0.175,0.12l0.175,0.119l0.176,0.118l0.176,0.117l0.177,0.116l0.177,0.114l0.178,0.115l0.179,0.113l0.178,0.112l0.179,0.111l0.18,0.11l0.18,0.109l0.18,0.108l0.181,0.107l0.182,0.106l0.182,0.105l0.182,0.104l0.182,0.103l0.183,0.102l0.184,0.101l0.184,0.101l0.184,0.099l0.185,0.098l0.185,0.097l0.185,0.096l0.186,0.095l0.186,0.095l0.187,0.093l0.187,0.092l0.187,0.092l0.188,0.09l0.188,0.089l0.188,0.088l0.189,0.088l0.189,0.086l0.189,0.085l0.19,0.085l0.19,0.083l0.19,0.083l0.191,0.081l0.191,0.08l0.191,0.08l0.192,0.079l0.192,0.077l0.192,0.076l0.192,0.076l0.194,0.075l0.192,0.073l0.194,0.073l0.193,0.071l0.194,0.071l0.194,0.07l0.195,0.068l0.194,0.068l0.196,0.067l0.194,0.065l0.195,0.065l0.196,0.064l0.196,0.062l0.196,0.062l0.196,0.061l0.196,0.06l0.197,0.058l0.197,0.058l0.197,0.057l0.198,0.056l0.197,0.055l0.197,0.054l0.198,0.053l0.198,0.052l0.198,0.051l0.198,0.05l0.198,0.049l0.199,0.048l0.199,0.047l0.199,0.046l0.198,0.045l0.2,0.044l0.199,0.043l0.199,0.042l0.199,0.041l0.2,0.041l0.199,0.039l0.2,0.038l0.2,0.037l0.2,0.036l0.2,0.036l0.2,0.034l0.2,0.033l0.2,0.033l0.2,0.031l0.2,0.03l0.201,0.03l0.2,0.028l0.2,0.028l0.201,0.026l0.2,0.026l0.201,0.024l0.2,0.024l0.2,0.022l0.201,0.022l0.2,0.021l0.201,0.019l0.2,0.019l0.2,0.018l0.2,0.017l0.201,0.015l0.2,0.015l0.2,0.014l0.201,0.013l0.199,0.012l0.2,0.011l0.2,0.01l0.201,0.009l0.199,0.008l0.2,0.007l0.2,0.006l0.199,0.005l0.199,0.004l0.2,0.003l0.2,0.002l0.198,0.002l0.199,0l0.199,-0.001l0.199,-0.001l0.199,-0.003l0.198,-0.003l0.198,-0.005l0.198,-0.005l0.198,-0.007l0.198,-0.007l0.198,-0.008l0.197,-0.01l0.198,-0.01l0.196,-0.011l0.198,-0.012l0.196,-0.013l0.197,-0.014l0.196,-0.015l0.196,-0.016l0.196,-0.017l0.195,-0.018l0.196,-0.019l0.195,-0.02l0.194,-0.02l0.195,-0.022l0.195,-0.023l0.194,-0.023l0.194,-0.024l0.194,-0.026l0.192,-0.026l0.194,-0.027l0.193,-0.029l0.192,-0.029l0.192,-0.03l0.192,-0.031l0.192,-0.032l0.191,-0.033l0.19,-0.033l0.191,-0.035l0.19,-0.036l0.19,-0.036l0.19,-0.038l0.189,-0.038l0.189,-0.04l0.188,-0.04l0.189,-0.041l0.187,-0.042l0.188,-0.043l0.187,-0.044l0.186,-0.045l0.186,-0.046l0.187,-0.047l0.185,-0.047l0.185,-0.049l0.185,-0.049l0.183,-0.05l0.184,-0.052l0.184,-0.052l0.183,-0.053l0.182,-0.054l0.182,-0.055l0.182,-0.055l0.182,-0.057l0.18,-0.058l0.18,-0.058l0.18,-0.059l0.18,-0.061l0.179,-0.061l0.178,-0.062l0.178,-0.063l0.177,-0.063l0.177,-0.065l0.177,-0.066l0.176,-0.066l0.175,-0.067l0.175,-0.068l0.175,-0.07l0.173,-0.07l0.174,-0.07l0.173,-0.072l0.172,-0.073l0.172,-0.073l0.171,-0.074l0.171,-0.076l0.17,-0.076l0.169,-0.077l0.17,-0.078l0.168,-0.078l0.168,-0.08l0.167,-0.08l0.167,-0.081l0.167,-0.083l0.165,-0.082l0.165,-0.084l0.164,-0.085l0.164,-0.085l0.164,-0.087l0.163,-0.087l0.161,-0.088l0.162,-0.089l0.161,-0.09l0.16,-0.09l0.159,-0.092l0.159,-0.092l0.159,-0.094l0.158,-0.094l0.157,-0.094l0.156,-0.096l0.156,-0.096l0.155,-0.098l0.154,-0.098l0.154,-0.099l0.154,-0.1l0.152,-0.101l0.152,-0.101l0.151,-0.103l0.15,-0.103l0.151,-0.104l0.149,-0.105l0.148,-0.105l0.148,-0.107l0.147,-0.108l0.147,-0.108l0.146,-0.109l0.145,-0.11l0.144,-0.11l0.144,-0.112l0.143,-0.112l0.142,-0.114l0.142,-0.113l0.14,-0.115l0.141,-0.116l0.139,-0.116l0.139,-0.118l0.138,-0.118l0.137,-0.119l0.137,-0.12l0.135,-0.12l0.136,-0.122l0.134,-0.122l0.134,-0.123l0.132,-0.124l0.133,-0.125l0.131,-0.126l0.131,-0.126l0.129,-0.127l0.13,-0.128l0.128,-0.129l0.127,-0.13l0.127,-0.13l0.127,-0.132l0.125,-0.132l0.124,-0.133l0.124,-0.134l0.123,-0.135l0.123,-0.136l0.121,-0.136l0.12,-0.137l0.12,-0.138l0.12,-0.139l0.118,-0.14l0.117,-0.141l0.117,-0.141l0.116,-0.142l0.115,-0.144l0.114,-0.144l0.114,-0.145l0.113,-0.146l0.112,-0.146l0.11,-0.147l0.111,-0.149l0.109,-0.149l0.109,-0.15l0.108,-0.151l0.107,-0.152l0.106,-0.153l0.105,-0.154l0.105,-0.154l0.103,-0.156l0.103,-0.156l0.102,-0.157l0.101,-0.158l0.1,-0.159l0.1,-0.16l0.098,-0.161l0.098,-0.161l0.096,-0.162l0.096,-0.164l0.096,-0.164l0.094,-0.166l0.093,-0.166l0.092,-0.167l0.092,-0.168l0.091,-0.169l0.089,-0.17l0.089,-0.171l0.088,-0.171l0.087,-0.173l0.086,-0.174l0.086,-0.174l0.084,-0.176l0.083,-0.176l0.083,-0.178l0.081,-0.178l0.081,-0.179l0.08,-0.181l0.078,-0.181l0.078,-0.182l0.077,-0.184l0.076,-0.184l0.074,-0.185l0.074,-0.187l0.073,-0.187l0.072,-0.188l0.071,-0.189l0.07,-0.19l0.183,-0.506l0.252,-0.552l0.13,-0.281l0.131,-0.28l0.132,-0.28l0.133,-0.278l0.133,-0.279l0.135,-0.277l0.136,-0.277l0.136,-0.275l0.138,-0.276l0.138,-0.274l0.14,-0.274l0.14,-0.273l0.141,-0.272l0.142,-0.271l0.143,-0.271l0.144,-0.27l0.146,-0.269l0.145,-0.268l0.147,-0.268l0.148,-0.267l0.148,-0.266l0.15,-0.265l0.15,-0.265l0.151,-0.263l0.152,-0.264l0.154,-0.262l0.153,-0.261l0.155,-0.261l0.156,-0.26l0.156,-0.259l0.158,-0.259l0.158,-0.257l0.159,-0.257l0.16,-0.256l0.161,-0.256l0.162,-0.254l0.162,-0.254l0.164,-0.252l0.164,-0.252l0.165,-0.252l0.166,-0.25l0.167,-0.25l0.167,-0.249l0.168,-0.248l0.17,-0.247l0.17,-0.247l0.171,-0.246l0.172,-0.244l0.172,-0.244l0.173,-0.244l0.174,-0.242l0.176,-0.242l0.175,-0.24l0.177,-0.24l0.177,-0.24l0.178,-0.238l0.179,-0.237l0.18,-0.237l0.18,-0.236l0.182,-0.235l0.182,-0.234l0.182,-0.233l0.184,-0.233l0.184,-0.232l0.186,-0.231l0.185,-0.229l0.187,-0.229l0.187,-0.229l0.188,-0.227l0.189,-0.227l0.19,-0.226l0.19,-0.225l0.191,-0.223l0.192,-0.224l0.193,-0.222l0.193,-0.221l0.194,-0.221l0.195,-0.22l0.195,-0.219l0.196,-0.218l0.197,-0.217l0.198,-0.216l0.198,-0.216l0.199,-0.214l0.2,-0.214l0.2,-0.213l0.201,-0.212l0.202,-0.211l0.203,-0.21l0.203,-0.209l0.203,-0.208l0.205,-0.208l0.205,-0.207l0.206,-0.205l0.207,-0.205l0.207,-0.204l0.208,-0.203l0.209,-0.203l0.208,-0.2l0.21,-0.201l0.211,-0.199l0.211,-0.199l0.212,-0.198l0.212,-0.196l0.213,-0.196l0.214,-0.195l0.215,-0.194l0.214,-0.193l0.216,-0.192l0.216,-0.191l0.217,-0.19l0.218,-0.19l0.218,-0.189l0.218,-0.187l0.22,-0.187l0.219,-0.185l0.221,-0.185l0.221,-0.184l0.222,-0.183l0.222,-0.182l0.223,-0.181l0.223,-0.18l0.225,-0.179l0.224,-0.179l0.226,-0.177l0.225,-0.176l0.227,-0.176l0.226,-0.174l0.228,-0.174l0.229,-0.172l0.228,-0.172l0.229,-0.17l0.23,-0.17l0.23,-0.169l0.231,-0.167l0.231,-0.167l0.233,-0.166l0.232,-0.165l0.233,-0.164l0.234,-0.163l0.233,-0.162l0.235,-0.16l0.235,-0.161l0.236,-0.159l0.237,-0.158l0.236,-0.157l0.237,-0.156l0.238,-0.155l0.238,-0.154l0.239,-0.153l0.239,-0.152l0.24,-0.152l0.24,-0.15l0.241,-0.149l0.241,-0.148l0.242,-0.147l0.242,-0.146l0.243,-0.146l0.243,-0.144l0.243,-0.143l0.245,-0.142l0.244,-0.141l0.246,-0.14l0.245,-0.139l0.245,-0.138l0.247,-0.138l0.247,-0.136l0.247,-0.135l0.248,-0.133l0.248,-0.134l0.249,-0.132l0.249,-0.131l0.25,-0.129l0.25,-0.129l0.25,-0.128l0.251,-0.127l0.251,-0.126l0.252,-0.124l0.252,-0.124l0.253,-0.123l0.253,-0.121l0.253,-0.121l0.253,-0.119l0.255,-0.119l0.254,-0.117l0.255,-0.116l0.256,-0.116l0.255,-0.114l0.256,-0.113l0.257,-0.112l0.257,-0.111l0.257,-0.11l0.258,-0.109l0.258,-0.108l0.258,-0.106l0.259,-0.106l0.259,-0.105l0.26,-0.103l0.26,-0.103l0.26,-0.101l0.26,-0.1l0.261,-0.099l0.261,-0.098l0.262,-0.097l0.262,-0.096l0.262,-0.095l0.263,-0.094l0.263,-0.092l0.263,-0.092l0.264,-0.09l0.264,-0.089l0.264,-0.089l0.264,-0.087l0.265,-0.086l0.265,-0.084l0.266,-0.084l0.266,-0.083l0.266,-0.081l0.266,-0.08l0.267,-0.08l0.267,-0.078l0.267,-0.077l0.268,-0.076l0.267,-0.074l0.268,-0.074l0.269,-0.072l0.269,-0.072l0.268,-0.07l0.27,-0.069l0.269,-0.068l0.269,-0.066l0.271,-0.066l0.27,-0.064l0.27,-0.063l0.271,-0.062l0.271,-0.061l0.271,-0.06l0.271,-0.059l0.272,-0.057l0.272,-0.057l0.272,-0.055l0.272,-0.054l0.273,-0.052l0.272,-0.052l0.274,-0.05l0.273,-0.049l0.273,-0.049l0.274,-0.046l0.273,-0.046l0.274,-0.044l0.275,-0.044l0.274,-0.042l0.274,-0.041l0.275,-0.039l0.275,-0.039l0.275,-0.037l0.275,-0.036l0.276,-0.035l0.275,-0.034l0.276,-0.032l0.276,-0.031l0.276,-0.03l0.276,-0.029l0.276,-0.028l0.277,-0.026l0.276,-0.025l0.277,-0.024l0.277,-0.023l0.277,-0.021l0.277,-0.02l0.277,-0.019l0.278,-0.018l0.277,-0.017l0.278,-0.015l0.277,-0.014l0.278,-0.013l0.278,-0.011l0.278,-0.01l0.278,-0.009l0.278,-0.008l0.279,-0.007l0.278,-0.005l0.278,-0.004l0.279,-0.003l0.278,-0.001l0.279,0l0.279,0.001Zm-51.01,50.055l0.001,-0.003l0.013,-0.034l-0.014,0.037Z" style="fill:#fff;"/></g><path d="M315.613,196.789l-108.427,108.531l-9.151,9.026l-45.801,5.42l5.42,-45.802l9.024,-9.149l108.413,-108.413l40.522,40.387Zm-138.291,78.596l-5.376,5.45l-2.58,21.799l21.799,-2.58l5.449,-5.374l97.773,-97.869l-19.278,-19.213l-97.787,97.787Z" style="fill:#fff;"/><path d="M315.97,121.078l0.295,0.01l0.294,0.018l0.294,0.024l0.293,0.032l0.292,0.038l0.291,0.045l0.29,0.052l0.29,0.058l0.287,0.066l0.287,0.072l0.285,0.08l0.284,0.086l0.281,0.092l0.281,0.1l0.278,0.106l0.276,0.113l0.274,0.12l0.272,0.127l0.269,0.133l0.266,0.14l0.265,0.147l0.26,0.153l0.258,0.16l0.236,0.154l0.145,0.099l0.125,0.087l0.124,0.089l0.124,0.09l0.123,0.093l0.121,0.094l0.121,0.095l0.119,0.097l0.119,0.099l0.118,0.1l0.116,0.101l0.115,0.103l0.115,0.105l0.167,0.157l22.029,22.03l0.027,0.025l0.115,0.114l0.112,0.113l0.113,0.118l0.109,0.117l0.109,0.119l0.107,0.121l0.105,0.121l0.101,0.121l0.101,0.124l0.102,0.127l0.097,0.126l0.094,0.126l0.095,0.129l0.092,0.129l0.09,0.129l0.088,0.131l0.086,0.132l0.085,0.134l0.083,0.134l0.08,0.134l0.079,0.135l0.076,0.136l0.076,0.138l0.073,0.137l0.071,0.138l0.069,0.139l0.077,0.16l0.119,0.26l0.121,0.283l0.113,0.284l0.106,0.287l0.099,0.289l0.091,0.289l0.083,0.292l0.076,0.292l0.068,0.292l0.061,0.294l0.054,0.295l0.046,0.295l0.039,0.294l0.032,0.296l0.025,0.296l0.017,0.295l0.011,0.296l0.004,0.296l-0.004,0.295l-0.011,0.296l-0.017,0.293l-0.024,0.294l-0.032,0.293l-0.038,0.291l-0.045,0.292l-0.052,0.29l-0.058,0.29l-0.066,0.287l-0.072,0.287l-0.08,0.285l-0.085,0.283l-0.094,0.283l-0.099,0.281l-0.106,0.277l-0.113,0.275l-0.12,0.275l-0.127,0.272l-0.133,0.269l-0.14,0.267l-0.147,0.263l-0.153,0.261l-0.16,0.259l-0.155,0.236l-0.098,0.145l-0.086,0.123l-0.089,0.124l-0.093,0.126l-0.092,0.123l-0.092,0.12l-0.095,0.12l-0.098,0.12l-0.099,0.119l-0.099,0.117l-0.103,0.118l-0.102,0.114l-0.104,0.114l-0.158,0.167l-24.278,24.278l-39.511,-39.374l24.138,-24.266l0.031,-0.032l0.114,-0.115l0.115,-0.114l0.116,-0.111l0.118,-0.11l0.12,-0.109l0.119,-0.107l0.121,-0.104l0.124,-0.103l0.123,-0.101l0.125,-0.1l0.127,-0.098l0.126,-0.095l0.128,-0.094l0.13,-0.092l0.13,-0.09l0.131,-0.088l0.132,-0.086l0.132,-0.085l0.134,-0.083l0.135,-0.08l0.135,-0.079l0.137,-0.077l0.136,-0.075l0.138,-0.073l0.138,-0.071l0.138,-0.068l0.161,-0.078l0.26,-0.119l0.283,-0.121l0.284,-0.114l0.287,-0.106l0.289,-0.098l0.289,-0.091l0.291,-0.083l0.292,-0.076l0.293,-0.068l0.294,-0.061l0.294,-0.054l0.295,-0.046l0.296,-0.039l0.295,-0.032l0.296,-0.025l0.296,-0.017l0.295,-0.011l0.296,-0.004l0.295,0.004Zm-11.968,27.899l18.289,18.226l11.752,-11.753l-18.288,-18.288l-11.753,11.815Z" style="fill:#fff;"/></g></svg>