<?xml version="1.0" encoding="UTF-8" standalone="no"?><!DOCTYPE svg PUBLIC "-//W3C//DTD SVG 1.1//EN" "http://www.w3.org/Graphics/SVG/1.1/DTD/svg11.dtd"><svg width="100%" height="100%" viewBox="0 0 504 504" version="1.1" xmlns="http://www.w3.org/2000/svg" xmlns:xlink="http://www.w3.org/1999/xlink" xml:space="preserve" style="fill-rule:evenodd;clip-rule:evenodd;stroke-linejoin:round;stroke-miterlimit:1.41421;"><path d="M452.2,251.6c-9.2,58.5 -27.1,75.6 -58.8,114.9c-31.7,33.3 -77.3,88.9 -141.9,85.8c-58.5,-9.2 -75.6,-27.1 -114.9,-58.8c-33.3,-31.7 -88.9,-77.3 -85.8,-141.9c9.2,-58.5 27.1,-75.6 58.8,-114.9c31.7,-33.3 77.3,-88.9 141.9,-85.8c58.5,9.2 75.6,27.1 114.9,58.8c33.3,31.7 88.9,77.3 85.8,141.9Z" style="fill:#c48b5f;fill-rule:nonzero;"/><g id="Layer_1_1_"><path d="M193.6,175.6l34.3,0l0,96.5c0,43.3 -20.9,58.7 -53.9,58.7c-8.3,0 -18.5,-1.2 -25.2,-3.5l3.9,-28c4.7,1.6 11,2.8 17.7,2.8c14.6,0 23.6,-6.7 23.6,-29.9l-0.4,-96.6Z" style="fill:#fff;fill-rule:nonzero;"/><path d="M258.2,293c9.1,4.7 23.6,9.5 38.2,9.5c15.8,0 24,-6.7 24,-16.9c0,-9.5 -7.1,-15 -25.6,-21.3c-25.2,-9.1 -42.1,-23.2 -42.1,-45.7c0,-25.6 22.1,-45.3 57.9,-45.3c17.3,0 29.9,3.5 39,7.9l-7.9,27.6c-5.9,-2.8 -16.9,-7.1 -31.5,-7.1c-15,0 -22,7.1 -22,14.6c0,9.8 8.3,14.2 28.3,21.7c26.8,9.8 39.4,24 39.4,45.7c0,25.6 -19.3,47.3 -61.4,47.3c-17.3,0 -34.7,-4.7 -43.3,-9.5l7,-28.5Z" style="fill:#fff;fill-rule:nonzero;"/></g></svg>